<?xml version="1.0" encoding="iso-8859-1"?>
<!-- Generator: Adobe Illustrator 19.0.0, SVG Export Plug-In . SVG Version: 6.00 Build 0)  -->
<svg version="1.1" id="Layer_1" xmlns="http://www.w3.org/2000/svg" xmlns:xlink="http://www.w3.org/1999/xlink" x="0px" y="0px"
	 viewBox="0 0 295.996 295.996" style="enable-background:new 0 0 295.996 295.996;" xml:space="preserve">
<g>
	<path style="fill:#FFCE00;" d="M267.312,91.997c-0.07-0.301-0.15-0.599-0.223-0.898c-7.269-15.153-17.35-28.709-29.558-39.997
		c-22.391-13.376-48.766-20.666-76.772-19.645c-45.988,1.677-85.981,25.355-110.234,60.54h211.472
		C261.997,91.997,267.312,91.997,267.312,91.997z"/>
	<path style="fill:#FFCE00;" d="M270.996,123.998c0-5.413-0.325-10.749-0.924-16.001h-8.408v23.308
		c0,27.139-22.205,49.218-49.499,49.218c-27.295,0-49.501-22.173-49.501-49.428v-23.098h-31v23.308
		c0,23.558-16.569,43.292-38.836,48.093c-0.493,5.39-2.316,10.592-5.485,15.125c16.116,21.16,42.778,32.686,69.423,29.605
		c22.261-2.567,42.869-15.393,55.094-34.308l13.448,8.684c-14.791,22.889-39.713,38.409-66.672,41.519
		c-3.46,0.399-6.916,0.595-10.36,0.595c-28.311,0-55.531-13.245-72.97-35.615c-4.328,2.158-9.071,3.296-13.895,3.296
		c-2.286,0-4.589-0.253-6.873-0.771l3.537-15.604c5.127,1.159,10.493-0.453,14.359-4.317c2.122-2.121,3.394-4.697,4.073-7.436
		c-24.559-2.89-43.843-23.788-43.843-49.074v-3.948c-5,15.457-7.503,32.078-6.875,49.316c0.413,11.304,2.253,22.239,5.17,32.673
		c6.303,12.01,14.439,22.938,23.975,32.42c21.892,14.189,48.011,22.44,76.043,22.44
		C208.296,263.996,270.996,201.316,270.996,123.998z"/>
	<path style="fill:#FFB100;" d="M273.794,107.997h-3.722c0.599,5.252,0.924,10.588,0.924,16.001
		c0,77.318-62.68,139.998-139.998,139.998c-28.032,0-54.131-8.251-76.023-22.44c23.88,23.744,56.766,38.44,93.023,38.44
		c72.784,0,131.998-59.214,131.998-131.998C279.996,134.059,277.817,120.62,273.794,107.997z"/>
	<path style="fill:#FFB100;" d="M267.51,91.997c-0.142-0.299-0.277-0.602-0.421-0.898c0.072,0.3,0.152,0.598,0.223,0.898H267.51z"/>
	<path style="fill:#FFE454;" d="M160.76,31.457c28.006-1.021,54.381,6.268,76.772,19.645C213.985,29.328,182.521,16,147.998,16
		C95.225,16,49.593,47.135,28.486,91.997h22.039C74.778,56.812,114.771,33.134,160.76,31.457z"/>
	<path style="fill:#FFE454;" d="M32.664,127.147v-19.149H22.202c-4.023,12.622-6.202,26.061-6.202,40
		c0,22.05,5.442,42.849,15.042,61.138c-2.917-10.434-4.84-21.369-5.253-32.673C25.161,159.225,27.664,142.604,32.664,127.147z"/>
	<path d="M147.998,0C66.392,0,0,66.392,0,147.998s66.392,147.998,147.998,147.998s147.998-66.392,147.998-147.998
		S229.605,0,147.998,0z M147.998,279.996c-36.257,0-69.143-14.696-93.023-38.44c-9.536-9.482-17.631-20.41-23.934-32.42
		C21.442,190.847,16,170.048,16,147.998c0-13.939,2.179-27.378,6.202-40.001h10.462v19.149v3.948
		c0,25.286,19.285,46.185,43.843,49.074c-0.679,2.738-2.034,5.314-4.156,7.436c-3.866,3.864-9.191,5.477-14.318,4.317l-3.516,15.604
		c2.284,0.519,4.597,0.771,6.883,0.771c4.824,0,9.573-1.138,13.901-3.296c17.439,22.37,44.664,35.615,72.974,35.615
		c3.443,0,6.904-0.195,10.364-0.595c26.959-3.109,51.886-18.63,66.677-41.519l-13.437-8.684
		c-12.225,18.915-32.812,31.74-55.073,34.308c-26.645,3.081-53.265-8.444-69.381-29.605c3.169-4.533,4.909-9.735,5.402-15.125
		c22.267-4.801,38.836-24.535,38.836-48.093v-23.308h31v23.098c0,27.255,22.206,49.428,49.501,49.428
		c27.294,0,49.499-22.079,49.499-49.218v-23.308h8.408h3.722c4.023,12.623,6.202,26.062,6.202,40.001
		C279.996,220.782,220.782,279.996,147.998,279.996z M178.664,107.997h67v23.308c0,18.316-15.027,33.218-33.499,33.218
		c-18.473,0-33.501-14.996-33.501-33.428V107.997z M28.486,91.997C49.593,47.135,95.225,16,147.998,16
		c34.523,0,65.987,13.328,89.533,35.102c12.208,11.288,22.289,24.844,29.558,39.997c0.144,0.297,0.279,0.6,0.421,0.898h-0.198
		H28.486z M82.165,164.523c-18.473,0-33.501-14.996-33.501-33.428v-23.098h67v23.308
		C115.664,149.621,100.637,164.523,82.165,164.523z"/>
	<path style="fill:#FFE454;" d="M115.664,131.305v-23.308h-67v23.098c0,18.432,15.028,33.428,33.501,33.428
		C100.637,164.523,115.664,149.621,115.664,131.305z M82.497,149.998c-8.836,0-16-7.164-16-16s7.164-16,16-16s16,7.164,16,16
		S91.333,149.998,82.497,149.998z"/>
	<circle cx="82.497" cy="133.998" r="16"/>
	<path style="fill:#FFE454;" d="M212.165,164.523c18.472,0,33.499-14.901,33.499-33.218v-23.308h-67v23.098
		C178.664,149.526,193.692,164.523,212.165,164.523z M212.497,117.998c8.836,0,16,7.164,16,16s-7.164,16-16,16s-16-7.164-16-16
		S203.661,117.998,212.497,117.998z"/>
	<circle cx="212.497" cy="133.998" r="16"/>
</g>
<g>
</g>
<g>
</g>
<g>
</g>
<g>
</g>
<g>
</g>
<g>
</g>
<g>
</g>
<g>
</g>
<g>
</g>
<g>
</g>
<g>
</g>
<g>
</g>
<g>
</g>
<g>
</g>
<g>
</g>
</svg>
